<svg xmlns="http://www.w3.org/2000/svg" viewBox="0 0 48 48">
  <path d="M46.7 32.7c-.2-.2-2.2-2.9-2.2-2.9 1.2-1.5 2.2-3 2.8-4.9.6-2 .8-4 .6-6-.2-3.1-1.4-6-3.5-8.3-4.8-5.2-13.1-6.3-19.7-5.1-4.9.9-9.7 3.3-12.3 7.7-4.4 1.3-8.5 3.4-10.7 7.6C-1 25.9-.5 32.7 3.3 37c.3.3-.3.9-.6 1.2l-.9 1.2c-.2.4-.7.8-.7 1.3-.1 1 .7 1.4 1.5 1.7 1.5.5 3.2.4 4.6-.2.6-.2 1.2-.5 1.8-.6.2-.1.5-.2.7-.2 2.8.8 5.7 1.5 8.7 1.6 4.1.2 8.2-1.2 11.3-3.9 1.4-1.1 2.6-2.5 3.4-4 1.7-.3 3.3-.6 4.9-1.1.6-.2 1.6.5 2.2.6 1.3.5 2.5.7 3.8.6 1.4-.1 3.6-.8 2.7-2.5m-18.3 4.5c-3.8 3.3-8.8 3.9-13.6 3.2-1.2-.2-2.4-.5-3.6-.9-1.1-.4-1.8-.6-2.9-.2-1 .4-3.4 1.7-4.4 1-.1-.1.4-.2 1-1 .6-1.1 1.4-2.3.4-3.6-.7-1-1.4-1.8-1.9-2.9-1-2.4-1.3-5.1-.8-7.6.8-4.6 4.1-7.7 8.4-9.3-1.5 5.1-.1 10.7 3.8 14.4 4 3.7 9.8 5.3 15.2 5-.5.8-1 1.3-1.6 1.9m13.7-4.5c-1.2-.3-2.5-1.2-3.7-1.2-1 0-2 .6-2.9.9-1.1.3-2.3.5-3.5.6-3.9.4-8 .1-11.7-1.6-2.9-1.3-5.3-3.5-6.6-6.3s-1.4-6.3-.2-9.2C16.3 9.1 24.4 7 31 7.4c6.4.4 13 3.5 14.2 10.3.5 2.5.2 5.1-.7 7.4-.5 1.2-1.2 2.1-2 3.1-1 1.3-.2 2.4.5 3.6.1.2.8 1 .7 1.1-.2.3-1.3-.1-1.6-.2m-12.8-7.2c-2.1 0-2.1 3.2 0 3.2s2.1-3.2 0-3.2m.3-14c-2.1 0-3.7 1.3-4.4 3.2-.3.8-.5 2.1.6 2.4 1.2.4 1.4-.8 1.7-1.6.3-1 1-1.5 2.1-1.5.8 0 1.7.3 1.9 1.1.2.8-.2 1.3-.8 1.8-.7.6-1.4 1.3-2.1 2l-.1.2c-.6 1.1-1.1 2.9-.3 4.1.8 1.2 2.7.1 2.1-1.2-.1-.5-.1-1 .3-1.7 1.4-1.7 3.7-2.7 3.4-5.3-.3-2.2-2.3-3.5-4.4-3.5"/>
</svg>
