<svg xmlns="http://www.w3.org/2000/svg" viewBox="0 0 48 48">
  <path d="M34.9 26.1c3.4 0 6-2.8 6-6.1s-2.8-6-6.2-5.9c-3.3 0-6 2.7-6 6 .1 3.3 2.8 6 6.2 6zm0-9.8c2 0 3.6 1.7 3.6 3.7s-1.7 3.6-3.8 3.6c-2 0-3.6-1.7-3.6-3.6.1-2.1 1.7-3.7 3.8-3.7zm11.9-8.1h-1.9v-2c0-.6-.5-1.2-1.2-1.2H1.2C.5 5 0 5.5 0 6.2v32.5c0 .6.5 1.2 1.2 1.2h1.9v2c0 .6.5 1.2 1.2 1.2h42.5c.7 0 1.2-.5 1.2-1.2V9.4c0-.7-.5-1.2-1.2-1.2zm-1.2 32.4H5.5V10.5h40.1v30.1zM10.5 31c.5.4 1.2.3 1.6-.2l7.3-9.5 13 14.7s1.2.6 1.7.1c.5-.4.5-1.1.1-1.6L20.3 18.6c-.4-.5-1.2-.5-1.6-.1l-.2.2-8.2 10.7c-.4.5-.3 1.2.2 1.6z"/>
</svg>
