<svg xmlns="http://www.w3.org/2000/svg" viewBox="0 0 48 48">
  <path d="M30.8 25.1c-.1 1.1-.5 2.1-1 3-.5.9-1.2 1.7-2.1 2.3-2.2 1.6-5.1 1.7-7.4.3-1.2-.7-2.1-1.7-2.8-2.9-.9-1.8-1.1-3.9-.5-5.8h-2.1v10.7c0 .5.4.9.9.9h16.1c.5 0 .9-.4.9-1V22h-2.2c.2 1 .3 2.1.2 3.1zm1-10.9h-2.1c-.5 0-.9.4-.9.9v2.5c.1.4.5.6.9.6h2.1c.5 0 .9-.4.9-.9v-2.2c.1-.4-.3-.9-.9-.9zM24 0C10.7 0 0 10.7 0 24s10.7 24 24 24 24-10.7 24-24S37.3 0 24 0zm11.2 33.3v.3c-.2 1-.9 1.8-1.8 2l-.4.1H15c-1-.2-1.8-.9-2-1.9 0-.1 0-.2-.1-.4V14.6v-.1c.1-1 .9-1.9 1.9-2.1l.3-.1h18c1 .2 1.8 1 2 2v.3l.1 18.7zm-11.6-3.8c2.7.1 4.9-2.1 5-4.7.1-2.7-2.1-4.9-4.7-5-2.7-.1-4.9 2.1-5 4.7-.1 2.8 2 5 4.7 5z"/>
</svg>
