<svg xmlns="http://www.w3.org/2000/svg" viewBox="0 0 48 48">
  <path d="M24 0C10.7 0 0 10.7 0 24s10.7 24 24 24 24-10.7 24-24S37.3 0 24 0zm1.7 30.9L20 36.7c-.8.7-1.8 1.1-2.8 1.1-1 0-2-.4-2.8-1.1l-3.3-3.3c-.7-.7-1.2-1.8-1.1-2.8 0-1.1.4-2.1 1.2-2.8l5.8-5.7c.5-.5 1.2-.9 2-.9 1.1.1 2.1.5 2.8 1.4.4.4.4 1 0 1.4s-1 .4-1.4 0c-.4-.4-.9-.7-1.4-.8-.2 0-.4.1-.6.3l-5.8 5.7c-.4.4-.6.9-.6 1.4 0 .5.2 1 .6 1.4l3.3 3.3c.4.3.9.5 1.4.5.5 0 1-.2 1.4-.5l5.7-5.8c.2-.2.3-.4.3-.6-.1-.5-.3-1-.7-1.3-.4-.4-.4-1 0-1.4.4-.3.9-.4 1.3-.1.8.7 1.3 1.7 1.4 2.8-.1.7-.4 1.5-1 2zm2.5-12.7c.4-.4 1.1-.3 1.4.1.3.4.3.9 0 1.3l-9.8 9.8c-.4.3-1.1.3-1.4-.2-.3-.4-.3-.9 0-1.2l9.8-9.8zm8.6 1.5L31 25.5c-.5.5-1.2.8-2 .9-1.1-.1-2.1-.6-2.8-1.4-.4-.4-.3-1.1.1-1.4.4-.3.9-.3 1.3 0 .4.4.8.7 1.4.8.2 0 .4-.1.6-.3l5.8-5.8c.4-.4.5-.9.5-1.4 0-.5-.2-1-.5-1.4l-3.2-3.2c-.4-.3-.9-.5-1.4-.5-.5 0-1 .2-1.4.5l-5.8 5.8c-.2.2-.3.4-.3.6.1.5.3 1 .7 1.3.4.4.4 1 .1 1.4-.4.4-1 .4-1.4.1-.8-.7-1.3-1.7-1.4-2.8 0-.8.3-1.5.9-2l5.8-5.8c.8-.7 1.8-1.1 2.8-1.1 1 0 2 .4 2.8 1.1l3.2 3.2c.7.8 1.1 1.8 1.1 2.8 0 1.1-.4 2.1-1.1 2.8z"/>
</svg>
