<svg xmlns="http://www.w3.org/2000/svg" viewBox="0 0 337 57">
  <title>
    Medielogin
  </title>
  <path d="M69.3 11h5.1l9.8 30.5L93.7 11h5l2.8 37h-3.7l-2.2-29.9L86.2 48h-3.8l-9.7-29.9-2 29.9H67zM107 17.2c0-4.9 2.95-6.7 6.25-6.5l15.75.8V15h-15.5c-2.6 0-2.5.8-2.5 2.2v10l16 .5v3l-16 .5v10c0 2.7 1.5 2.8 3 2.8h15v2.7l-15.25.7c-3.3.2-6.75-.6-6.75-6.3zM135 11h14.1c11.3 0 13 11.15 13 18.65 0 8.3-3.4 18.35-13 18.35H135zm14.1 33c6.6 0 9.3-6.65 9.3-14.35C158.4 19 154.9 15 149.1 15H139v29zM168 11h4v37h-4zM179 17.2c0-4.9 2.95-6.7 6.25-6.5l15.75.8V15h-15.6c-2.6 0-2.4.8-2.4 2.2v10l16 .5v3l-16 .5v10c0 2.7 1.4 2.8 2.9 2.8H201v2.7l-15.25.9c-3.3.2-6.75-.6-6.75-6.3zM206.5 11h6.5v27.2c0 2.7 2.2 2.8 3.6 2.8H229v7h-14.8c-4 0-7.2-2.2-7.2-7.8V11zM246.1 10.4c8.7 0 14.7 1.6 14.7 18.8 0 16.2-5.7 18.3-14.7 18.3s-14.7-1.6-14.7-18.3c0-17.1 6.3-18.8 14.7-18.8zm0 30.6c5.9 0 7.7-1.9 7.7-11.8 0-11.4-2.1-12.4-7.7-12.4-5.4 0-7.7.7-7.7 12.4 0 10 1.4 11.8 7.7 11.8zM276.05 10.3A49 49 0 0 1 290 11.9v5.4a106 106 0 0 0-12.25-.9c-5.5 0-6.53 3.4-6.53 12.4 0 9.5 1.19 12.1 6.39 12.1a12 12 0 0 0 6.39-2.3V32h-5v-4.4c2-.9 5.05-1.2 8.65-1.2 1 0 2.35 0 3.35.1V48h-5.1l-1.9-2.9c-1.6 1.5-3.5 2.4-7.8 2.5-10.4.4-12-8.4-12-18.9s1.95-18.4 11.85-18.4zM296 11h7v37h-7zM308 11h7.3L330 34.4V11h7v37h-7.2L315 23.9V48h-7zM44.5 22A22.3 22.3 0 0 0 22.3 0a22 22 0 0 0-22 22 21.66 21.66 0 0 0 8.07 17.1L0 46.7V57h44V46.7l-8-7.57A22.11 22.11 0 0 0 44.5 22zM8.35 49L15 42.7V33a13.12 13.12 0 0 1-5.9-11 13.35 13.35 0 0 1 26.7 0c0 4.6-2.8 8.7-5.8 11v9.7l6.31 6.3z"/>
</svg>
