<svg viewBox="0 0 48 48" xmlns="http://www.w3.org/2000/svg">
  <path stroke="null" id="svg_1" d="m28.977496,19.592782l-21.714051,0c-0.625648,0 -1.13342,0.507772 -1.13342,1.13342s0.507772,1.13342 1.13342,1.13342l21.711784,0c0.618847,0 1.13342,-0.507772 1.13342,-1.13342s-0.512306,-1.13342 -1.131153,-1.13342zm-8.183289,7.793393l-13.601034,0c-0.627914,0 -1.13342,0.505505 -1.13342,1.13342c0,0.623381 0.503238,1.13342 1.13342,1.13342l13.601034,0c0.618847,0 1.13342,-0.510039 1.13342,-1.13342c0,-0.630181 -0.512306,-1.13342 -1.13342,-1.13342zm14.965671,-16.062821c-0.992875,-0.992875 -10.465996,-10.465996 -10.706281,-10.667744c-0.292422,-0.292422 -0.612047,-0.489637 -1.060881,-0.489637l-21.353624,0c-1.366904,0.004534 -2.473121,1.117552 -2.473121,2.484456l0,42.643776c0,1.364637 1.101684,2.475388 2.473121,2.475388l31.316381,0c1.371438,-0.004534 2.475388,-1.110751 2.475388,-2.475388l0,-32.551808c-0.079339,-0.698186 -0.670984,-1.419041 -0.670984,-1.419041zm-12.070918,-8.845206c0.489637,0.426166 8.16062,8.099416 9.101359,9.085491l-9.101359,0l0,-9.085491zm10.481864,42.816056c-0.004534,0.115609 -0.106541,0.213083 -0.213083,0.213083l-31.318648,0c-0.106541,0 -0.206282,-0.097474 -0.210816,-0.213083l0,-42.643776c0.004534,-0.122409 0.097474,-0.21535 0.210816,-0.21535l18.783028,0l0,9.874351c0,0.743523 0.53044,1.468912 1.453044,1.468912c0,0 11.200452,0.022668 11.293392,0l0,31.515863l0.002267,0z"/>
</svg>
