<svg xmlns="http://www.w3.org/2000/svg" viewBox="0 0 48 48">
  <path d="M27.42 38.53v-5.09a.85.85 0 0 0-.25-.63.82.82 0 0 0-.6-.25h-5.14a.82.82 0 0 0-.6.25.85.85 0 0 0-.25.63v5.08a.85.85 0 0 0 .25.63.82.82 0 0 0 .6.25h5.14a.82.82 0 0 0 .6-.25.85.85 0 0 0 .25-.62zm-.05-10l.48-12.28a.59.59 0 0 0-.27-.51 1 1 0 0 0-.64-.29h-5.88a1 1 0 0 0-.64.29.64.64 0 0 0-.27.56l.45 12.23a.51.51 0 0 0 .27.44 1.15 1.15 0 0 0 .64.17h4.95a1.09 1.09 0 0 0 .63-.17.59.59 0 0 0 .28-.45zm-.37-25L47.54 41.2a3.19 3.19 0 0 1-.05 3.37 3.42 3.42 0 0 1-2.94 1.69H3.45a3.42 3.42 0 0 1-2.94-1.69 3.19 3.19 0 0 1-.05-3.37L21 3.53a3.42 3.42 0 0 1 1.26-1.31 3.38 3.38 0 0 1 3.48 0A3.42 3.42 0 0 1 27 3.53z"/>
</svg>
