<svg xmlns="http://www.w3.org/2000/svg" viewBox="0 0 48 48">
  <path d="M33.2 20.3c.1-3.4-1.3-6.7-3.8-9.1-2.4-2.5-5.7-3.8-9.1-3.8-3.4-.1-6.7 1.3-9.1 3.8-2.5 2.4-3.8 5.7-3.8 9.1-.1 3.4 1.3 6.7 3.8 9.1 2.4 2.5 5.7 3.8 9.1 3.8 3.4.1 6.7-1.3 9.1-3.8 2.5-2.3 3.9-5.7 3.8-9.1zm14.8 24c0 2-1.7 3.7-3.7 3.7-1 0-1.9-.4-2.6-1.1L31.8 37c-3.4 2.4-7.4 3.6-11.5 3.6-2.7 0-5.4-.5-7.9-1.6-4.9-2-8.8-5.9-10.8-10.8-2.1-5-2.1-10.7 0-15.8 2-4.9 5.9-8.8 10.8-10.8 5-2.1 10.7-2.1 15.8 0 4.9 2 8.8 5.9 10.8 10.8 1.1 2.5 1.6 5.2 1.6 7.9 0 4.1-1.2 8.1-3.6 11.5l9.9 9.9c.7.7 1.1 1.6 1.1 2.6z"/>
</svg>
