<svg xmlns="http://www.w3.org/2000/svg" viewBox="0 0 48 48">
  <path d="M46.4 22.4h-3.7c-.8-4.3-5.1-7.1-9.4-6.2-3.1.6-5.6 3.1-6.2 6.2H1.6c-.9 0-1.6.8-1.6 1.6s.7 1.6 1.6 1.6h25.6c.8 4.3 5.1 7.1 9.4 6.2 3.1-.6 5.6-3.1 6.2-6.2h3.7c.8 0 1.6-.7 1.6-1.6-.1-.8-.8-1.6-1.7-1.6zm-11.5 6.4c-2.6 0-4.8-2.2-4.8-4.8s2.2-4.8 4.8-4.8 4.8 2.2 4.8 4.8-2.1 4.8-4.8 4.8zM46.4 6.4H20.7c-.8-4.3-5.1-7.1-9.4-6.2C8.2.8 5.7 3.3 5 6.4H1.7c-1 0-1.7.7-1.7 1.7 0 .8.7 1.6 1.6 1.6H5c.8 4.3 5.1 7.1 9.4 6.2 3.1-.6 5.6-3.1 6.2-6.2h25.8c.8 0 1.6-.7 1.6-1.6 0-1-.6-1.7-1.6-1.7zm-33.5 6.5c-2.6 0-4.8-2.2-4.8-4.8s2.2-4.8 4.8-4.8 4.8 2.2 4.8 4.8-2.1 4.8-4.8 4.8zm33.4 25.6H26.8c-.8-4.3-5.1-7.1-9.4-6.2-3.1.6-5.6 3.1-6.2 6.2H1.6c-.8 0-1.6.7-1.6 1.6 0 .8.7 1.6 1.6 1.6h9.7c.8 4.3 5.1 7.1 9.4 6.2 3.1-.6 5.6-3.1 6.2-6.2h19.6c.8 0 1.6-.7 1.6-1.6-.1-.9-.9-1.6-1.8-1.6zm-27.2 6.2c-2.6 0-4.8-2.2-4.8-4.8 0-2.6 2.2-4.8 4.8-4.8 2.6 0 4.8 2.2 4.8 4.8-.2 2.7-2.2 4.8-4.8 4.8z"/>
</svg>
