<svg xmlns="http://www.w3.org/2000/svg" viewBox="0 0 48 48">
  <path d="M45.2 5.1H2.8C1.3 5.1 0 6.4 0 7.9v32.3C0 41.7 1.3 43 2.8 43h42.5c1.5 0 2.8-1.3 2.8-2.8V7.9c-.1-1.5-1.4-2.8-2.9-2.8zM16.5 7.5h15V11h-15V7.5zm-14.1.4c0-.2.2-.4.4-.4h11.4V11H2.4V7.9zm11.8 32.6H2.8c-.2 0-.4-.2-.4-.4V37h11.8v3.5zm17.2 0H16.5V37h15l-.1 3.5zm14.2-.4c0 .2-.2.4-.4.4H33.8V37h11.9v3.1zm0-5.5H2.4V13.4h43.3v21.2zm0-23.6H33.8V7.5h11.5c.2 0 .4.2.4.4V11zM18.2 31l12.6-5.5c.9-.4.9-1.7 0-2.1l-12.6-5.5c-.8-.3-1.7.2-1.7 1.1v11c0 .8.9 1.3 1.7 1zm.7-10.3l8.5 3.7-8.5 3.7v-7.4z"/>
</svg>
