<svg xmlns="http://www.w3.org/2000/svg" viewBox="0 0 48 48">
  <path d="M47.78 8.75a17.85 17.85 0 0 1-2.4 2.79c-1.8 2-2 2.4-2 4a39.06 39.06 0 0 1-2.37 11 31.52 31.52 0 0 1-11.62 14.18A27.7 27.7 0 0 1 6.6 43.54 24.75 24.75 0 0 1 0 40.33a19.13 19.13 0 0 1 2.8-.2 21.44 21.44 0 0 0 9.2-2.8l1.8-1.2-2.2-.8a10 10 0 0 1-6.36-6C5 28.5 5 28.5 7 28.5h2l-1.6-.8a11.83 11.83 0 0 1-4.77-4.56 17.1 17.1 0 0 1-1.22-5c0-.2.8.2 1.6.4 2.4 1 2.8.8 1.4-.8A11 11 0 0 1 2.2 7l.6-1.8L5 7.55a27.68 27.68 0 0 0 16.58 8.4l1.8.2-.2-1.8a10.4 10.4 0 0 1 7-10.6 10.18 10.18 0 0 1 6-.2 14.84 14.84 0 0 1 3 1.6l1.6 1.2 1.8-.6a10.41 10.41 0 0 0 3-1.2c.6-.4 1.2-.6 1.2-.4a11 11 0 0 1-2.4 4c-1.4 1.6-1 1.6 2 .6 1.8-.6 1.8-.6 1.4 0"/>
</svg>
