<svg xmlns="http://www.w3.org/2000/svg" viewBox="0 0 48 48">
  <path d="M24-.1C10.7 0 0 10.7.1 24s10.8 24 24.1 23.9c13.3 0 24-10.8 23.9-24.1C48 10.7 37.3 0 24.1-.1H24m11.9 15.9c-.4.5-.8 1-1.2 1.4-.9 1-1 1.2-1 2-.1 1.9-.5 3.7-1.2 5.5-1.2 2.9-3.2 5.4-5.8 7.1-3.4 2.1-7.6 2.6-11.4 1.4-1.2-.4-2.3-.9-3.3-1.6.5-.1.9-.1 1.4-.1 1.6-.1 3.2-.6 4.6-1.4l.9-.6-1.1-.4c-1.5-.5-2.7-1.6-3.2-3-.1-.4-.1-.4.9-.4h1l-.8-.4c-1-.5-1.8-1.3-2.4-2.3-.3-.8-.5-1.6-.6-2.5 0-.1.4.1.8.2 1.2.5 1.4.4.7-.4-1.3-1.5-1.7-3.5-1.1-5.4l.3-.9 1.1 1.2c2.2 2.3 5.1 3.8 8.3 4.2l.9.1-.1-.9c-.2-2.4 1.3-4.5 3.5-5.3 1-.3 2-.4 3-.1.5.2 1 .5 1.5.8l.8.6.9-.3c.5-.1 1-.3 1.5-.6.3-.2.6-.3.6-.2-.3.7-.7 1.4-1.2 2-.7.8-.5.8 1 .3.9-.3.9-.3.7 0"/>
</svg>
