<svg xmlns="http://www.w3.org/2000/svg" viewBox="0 0 48 48">
  <path d="M6.09,19.22l-3.28-1.6V30.15l3.28-1.65Zm2.81-.29v9.85l16.4,9.8V9.38ZM38.59,38.52a1.42,1.42,0,0,1-1.88-.74,1.45,1.45,0,0,1,.74-1.9,13.06,13.06,0,0,0,.11-23.77,1.45,1.45,0,0,1-.72-1.91,1.42,1.42,0,0,1,1.88-.73,16,16,0,0,1-.13,29ZM34.36,18.7a1.45,1.45,0,0,1-.72-1.9,1.42,1.42,0,0,1,1.88-.73,8.56,8.56,0,0,1,1.58.92,8.76,8.76,0,0,1,3.54,7.09,8.41,8.41,0,0,1-3,6.45,8.78,8.78,0,0,1-2.06,1.32,1.42,1.42,0,0,1-1.89-.72,1.45,1.45,0,0,1,.71-1.91,5.94,5.94,0,0,0,1.4-.89,5.53,5.53,0,0,0,2-4.25,5.88,5.88,0,0,0-2.37-4.75A5.72,5.72,0,0,0,34.36,18.7ZM2,33.72a1.41,1.41,0,0,1-2-1.27V15.36a1.41,1.41,0,0,1,2-1.28l5.22,2.54L26,5.69a1.41,1.41,0,0,1,2.11,1.23V41.07A1.41,1.41,0,0,1,26,42.3L7.24,31.1Z"/>
</svg>
