<svg xmlns="http://www.w3.org/2000/svg" viewBox="0 0 48 48">
  <path d="M6.08,19.22l-3.27-1.6V30.15l3.27-1.65Zm2.81-.29v9.85l16.37,9.8V9.38Zm30.69,3.26-6-6.11a1.39,1.39,0,0,0-2,0,1.44,1.44,0,0,0,0,2l6,6.11-6,6.11a1.44,1.44,0,0,0,0,2,1.39,1.39,0,0,0,2,0l6-6.11,6,6.11a1.39,1.39,0,0,0,2,0,1.44,1.44,0,0,0,0-2l-6-6.11,6-6.11a1.44,1.44,0,0,0,0-2,1.39,1.39,0,0,0-2,0ZM2,33.72a1.4,1.4,0,0,1-2-1.27V15.36a1.4,1.4,0,0,1,2-1.28l5.21,2.54L26,5.69a1.4,1.4,0,0,1,2.1,1.23V41.07a1.4,1.4,0,0,1-2.12,1.23L7.22,31.1Z"/>
</svg>
