<?xml version="1.0" encoding="utf-8"?>
<!-- Generator: Adobe Illustrator 21.0.0, SVG Export Plug-In . SVG Version: 6.00 Build 0)  -->
<svg version="1.1" id="Layer_1" xmlns="http://www.w3.org/2000/svg" xmlns:xlink="http://www.w3.org/1999/xlink" x="0px" y="0px"
	 viewBox="0 0 60.5 69.5" style="enable-background:new 0 0 353.5 69.5;" xml:space="preserve">
<style type="text/css">
	.st0{fill:url(#SVGID_1_);}
	.st1{fill:url(#SVGID_2_);}
	.st2{fill:url(#SVGID_3_);}
	.st3{fill:url(#SVGID_4_);}
</style>
<g>
	
		<linearGradient id="SVGID_1_" gradientUnits="userSpaceOnUse" x1="8.3494" y1="575.66" x2="52.1494" y2="575.66" gradientTransform="matrix(1 0 0 -1 0 634.11)">
		<stop  offset="0" style="stop-color:#2F617F"/>
		<stop  offset="0.4728" style="stop-color:#4488B2"/>
		<stop  offset="0.6213" style="stop-color:#4486AF"/>
		<stop  offset="0.7903" style="stop-color:#3E80A6"/>
		<stop  offset="0.9687" style="stop-color:#3A7496"/>
		<stop  offset="1" style="stop-color:#387193"/>
	</linearGradient>
	<rect x="8.3" y="54.7" class="st0" width="43.8" height="7.5"/>
	
		<linearGradient id="SVGID_2_" gradientUnits="userSpaceOnUse" x1="6.125" y1="574.085" x2="25.125" y2="593.085" gradientTransform="matrix(1 0 0 -1 0 634.11)">
		<stop  offset="0" style="stop-color:#52A8DE"/>
		<stop  offset="8.983265e-02" style="stop-color:#4C9BCC"/>
		<stop  offset="0.2085" style="stop-color:#468DB8"/>
		<stop  offset="0.3234" style="stop-color:#4080A9"/>
		<stop  offset="0.4319" style="stop-color:#3D7A9F"/>
		<stop  offset="0.5272" style="stop-color:#3C789C"/>
		<stop  offset="0.6483" style="stop-color:#2F617F"/>
	</linearGradient>
	<polygon class="st1" points="8.3,62.2 23,48.5 23,38.9 8.3,52.5 	"/>
	
		<radialGradient id="SVGID_3_" cx="30.3308" cy="606.96" r="21.6518" gradientTransform="matrix(1 0 0 -1 0 634.11)" gradientUnits="userSpaceOnUse">
		<stop  offset="0" style="stop-color:#2F617F"/>
		<stop  offset="0.4728" style="stop-color:#4488B2"/>
		<stop  offset="0.6213" style="stop-color:#4486AF"/>
		<stop  offset="0.7903" style="stop-color:#3E80A6"/>
		<stop  offset="0.9687" style="stop-color:#3A7496"/>
		<stop  offset="1" style="stop-color:#387193"/>
	</radialGradient>
	<path class="st2" d="M30.3,5.8c-12.1,0-22,9.8-22,22c0,9.6,6.1,17.7,14.7,20.7v-9.7c-3.6-2.4-5.9-6.4-5.9-11
		c0-7.3,5.9-13.3,13.3-13.3s13.3,5.9,13.3,13.3c0,4.6-2.4,8.7-5.9,11v9.7c8.5-3,14.7-11.2,14.7-20.7C52.3,15.7,42.5,5.8,30.3,5.8z"
		/>
	
		<linearGradient id="SVGID_4_" gradientUnits="userSpaceOnUse" x1="37.658" y1="583.56" x2="52.3122" y2="583.56" gradientTransform="matrix(1 0 0 -1 0 634.11)">
		<stop  offset="0" style="stop-color:#3C789C"/>
		<stop  offset="0.1808" style="stop-color:#3D7A9F"/>
		<stop  offset="0.3866" style="stop-color:#4080A9"/>
		<stop  offset="0.6046" style="stop-color:#468DB8"/>
		<stop  offset="0.8296" style="stop-color:#4C9BCC"/>
		<stop  offset="1" style="stop-color:#52A8DE"/>
	</linearGradient>
	<polygon class="st3" points="52.3,62.2 37.7,48.5 37.7,38.9 52.3,52.5 	"/>
</g>
</svg>
