<?xml version="1.0" encoding="UTF-8"?>
<svg width="117px" height="70px" viewBox="0 0 117 70" version="1.1" xmlns="http://www.w3.org/2000/svg" xmlns:xlink="http://www.w3.org/1999/xlink">
    <!-- Generator: Sketch 56.2 (81672) - https://sketch.com -->
    <title>Mad logo medielogin large hvid 117x70 Copy</title>
    <desc>Created with Sketch.</desc>
    <g id="Mad-logo-medielogin-large-hvid-117x70-Copy" stroke="none" stroke-width="1" fill="none" fill-rule="evenodd">
        <g id="Group">
            <g id="Group-4" transform="translate(87.000000, 0.000000)"></g>
            <path d="M7.79852432,2.74804131 L5.46611351,2.74804131 L5.46611351,5.7464231 L7.74476757,5.7464231 C8.74274595,5.7464231 9.40110811,5.15701387 9.40110811,4.24691532 C9.40110811,3.37294185 8.74274595,2.74804131 7.79852432,2.74804131 Z M8.35063784,8.08314549 L5.46611351,8.08314549 L5.46611351,9.63589024 C5.46611351,9.92108825 5.51987027,9.99207087 5.80446486,9.99207087 L8.17292432,9.99207087 L8.17292432,12.3661859 L0,12.3661859 L0,9.99207087 L1.37048108,9.99207087 C1.65507568,9.99207087 1.83342162,9.79686867 1.83342162,9.51167066 L1.83342162,3.15872645 C1.83342162,2.76578696 1.77966486,2.74804131 1.26423243,2.74804131 L0,2.74804131 L0,0.463922103 L8.51064324,0.463922103 C11.1636973,0.463922103 12.9983838,2.0344125 12.9983838,4.31789793 C12.9983838,6.70975861 11.306627,8.08314549 8.35063784,8.08314549 Z M20.4218757,2.26637355 C18.1780054,2.26637355 18.107173,4.13980762 18.107173,6.56652583 C18.107173,8.67192095 18.2134216,10.4205017 20.4218757,10.4205017 C22.576573,10.4205017 22.7365784,8.7967743 22.7365784,6.58427149 C22.7365784,4.15755327 22.7005297,2.26637355 20.4218757,2.26637355 Z M20.4218757,12.8478536 C16.0770649,12.8478536 13.9584162,10.7056997 13.9584162,6.24583651 C13.9584162,2.39122691 16.3977081,0 20.3143622,0 C24.5529243,0 26.9561676,1.90955915 26.9561676,6.2984397 C26.9561676,10.4205017 24.5345838,12.8478536 20.4218757,12.8478536 Z M27.4893081,12.3661859 L27.4893081,9.99207087 L28.8066649,9.99207087 C29.2518973,9.99207087 29.4656595,9.77848924 29.4656595,9.3323128 L29.4656595,3.1764721 C29.4656595,2.87289466 29.3233622,2.74804131 28.9673027,2.74804131 L27.4893081,2.74804131 L27.4893081,0.463922103 L35.3947135,0.463922103 L35.3947135,2.74804131 L33.4537784,2.74804131 C33.2229405,2.74804131 33.0983514,2.89064032 33.0983514,3.12323514 L33.0983514,9.36843788 C33.0983514,9.92108825 33.3121135,10.0459416 34.2373622,10.0459416 C35.7691135,10.0459416 36.4635243,9.74299794 36.5343568,8.0115291 L36.5704054,7.17368072 L39.2942919,7.17368072 L39.2942919,12.3661859 L27.4893081,12.3661859 Z M46.2908919,2.74804131 C45.9885892,2.74804131 45.8994162,2.8196577 45.8994162,3.0338731 L45.8994162,9.42167484 C45.8994162,9.79686867 46.0771297,9.99207087 46.4331892,9.99207087 L47.8043027,9.99207087 L47.8043027,12.3661859 L40.3618378,12.3661859 L40.3618378,9.99207087 L41.6077297,9.99207087 C42.0175459,9.99207087 42.2667243,9.76074359 42.2667243,9.40392919 L42.2667243,3.0338731 C42.2667243,2.80191205 42.1775514,2.74804131 41.8214919,2.74804131 L40.3618378,2.74804131 L40.3618378,0.463922103 L47.8220108,0.463922103 L47.8220108,2.74804131 L46.2908919,2.74804131 Z M58.968,5.85289702 L58.968,3.40843316 C58.968,2.96225671 58.7004811,2.74804131 58.1667081,2.74804131 L57.1870703,2.74804131 L57.1870703,9.36843788 C57.1870703,9.83172621 57.3470757,9.99207087 57.7746,9.99207087 L59.1988378,9.99207087 L59.1988378,12.3661859 L51.5603189,12.3661859 L51.5603189,9.99207087 L52.9845568,9.99207087 C53.4120811,9.99207087 53.5543784,9.83172621 53.5543784,9.36843788 L53.5543784,2.74804131 L52.5930811,2.74804131 C52.0409676,2.74804131 51.7917892,2.96225671 51.7917892,3.40843316 L51.7917892,5.85289702 L48.9610216,5.85289702 L48.9610216,0.463922103 L61.7994,0.463922103 L61.7994,5.85289702 L58.968,5.85289702 Z M68.8662,2.74804131 C68.5638973,2.74804131 68.4747243,2.8196577 68.4747243,3.0338731 L68.4747243,9.42167484 C68.4747243,9.79686867 68.6524378,9.99207087 69.0091297,9.99207087 L70.3796108,9.99207087 L70.3796108,12.3661859 L62.9371459,12.3661859 L62.9371459,9.99207087 L64.1830378,9.99207087 C64.5934865,9.99207087 64.8426649,9.76074359 64.8426649,9.40392919 L64.8426649,3.0338731 C64.8426649,2.80191205 64.7534919,2.74804131 64.3968,2.74804131 L62.9371459,2.74804131 L62.9371459,0.463922103 L70.3973189,0.463922103 L70.3973189,2.74804131 L68.8662,2.74804131 Z M78.3912649,0.463922103 L78.3912649,2.74804131 L77.5008,2.74804131 C77.1624486,2.74804131 77.0916162,2.8196577 77.0916162,3.23034284 L77.0916162,5.72804367 L80.243027,3.08711006 C80.3144919,3.01612744 80.3676162,2.94451105 80.3676162,2.87289466 C80.3676162,2.78416639 80.2613676,2.74804131 80.1013622,2.74804131 L79.4594432,2.74804131 L79.4594432,0.463922103 L85.7274811,0.463922103 L85.7274811,2.74804131 L84.2671946,2.74804131 C83.8396703,2.74804131 83.4304865,2.90901974 83.0213027,3.24808849 L81.1334919,4.78245381 L85.1393189,9.70687285 C85.3360054,9.93883391 85.4605946,9.99207087 85.8514378,9.99207087 L86.5818973,9.99207087 L86.5818973,12.3661859 L79.5492486,12.3661859 L79.5492486,9.99207087 L80.2253189,9.99207087 C80.4036649,9.99207087 80.5105459,9.9033426 80.5105459,9.76074359 C80.5105459,9.67201532 80.4567892,9.56427385 80.3859568,9.4749118 L78.3741892,6.97721097 L77.0916162,8.0305423 L77.0916162,9.65363589 C77.0916162,9.92108825 77.1807892,9.99207087 77.4830919,9.99207087 L78.4096054,9.99207087 L78.4096054,12.3661859 L71.5363297,12.3661859 L71.5363297,9.99207087 L72.8713946,9.99207087 C73.2805784,9.99207087 73.4772649,9.83172621 73.4772649,9.51167066 L73.4772649,3.24808849 C73.4772649,2.99774802 73.2805784,2.74804131 73.0497405,2.74804131 L71.5534054,2.74804131 L71.5534054,0.463922103 L78.3912649,0.463922103 Z M114.997086,2.74804131 C114.694151,2.74804131 114.622686,2.8196577 114.622686,3.12323514 L114.622686,12.3661859 L111.685038,12.3661859 L106.147459,5.54995335 L106.147459,9.42167484 C106.147459,9.74299794 106.361222,9.99207087 106.628108,9.99207087 L107.946097,9.99207087 L107.946097,12.3661859 L101.571811,12.3661859 L101.571811,9.99207087 L102.763946,9.99207087 C103.174395,9.99207087 103.351476,9.81398055 103.351476,9.43942049 L103.351476,3.10485571 C103.351476,2.89064032 103.19147,2.74804131 102.960632,2.74804131 L101.571811,2.74804131 L101.571811,0.463922103 L106.788114,0.463922103 L111.809627,6.79848688 L111.809627,3.05098498 C111.809627,2.83676958 111.720454,2.74804131 111.435859,2.74804131 L110.2608,2.74804131 L110.2608,0.463922103 L116.510497,0.463922103 L116.510497,2.74804131 L114.997086,2.74804131 Z M87.7373514,12.3661859 L87.7373514,9.99207087 L88.8415784,9.99207087 C89.1445135,9.99207087 89.3759838,9.79686867 89.3759838,9.54652819 L89.3759838,3.1764721 C89.3759838,2.90901974 89.1976378,2.74804131 88.8769946,2.74804131 L87.5773459,2.74804131 L87.5773459,0.463922103 L99.9704919,0.463922103 L99.9704919,4.99666921 L97.4780757,4.99666921 L97.3705622,3.42617881 C97.3528541,3.08711006 97.1568,2.74804131 96.4800973,2.74804131 L92.9903351,2.74804131 L92.9903351,5.21025083 L93.9516324,5.21025083 C94.2191514,5.21025083 94.414573,4.99666921 94.4506216,4.62210915 L94.5220865,4.01495427 L96.2309189,4.01495427 L96.2309189,8.27961524 L94.5391622,8.27961524 L94.4506216,7.45887873 C94.4329135,7.22691768 94.2545676,7.08431867 93.9516324,7.08431867 L92.9903351,7.08431867 L92.9903351,9.31456714 C92.9903351,9.79686867 93.1686811,9.99207087 93.6132811,9.99207087 L96.1063297,9.99207087 C96.9613784,9.99207087 97.4413946,9.54652819 97.4780757,8.69030038 L97.5489081,7.26304276 L100.361968,7.26304276 L100.361968,12.3661859 L87.7373514,12.3661859 Z M7.10542736e-15,70 L7.10542736e-15,20.1932685 L6.17249555,20.1932685 L18.309425,45.2712721 L18.4481328,45.2712721 L30.4463545,20.1932685 L36.5494961,20.1932685 L36.5494961,70 L32.1108477,70 L32.1108477,26.9692193 L31.9721399,26.9692193 L19.9739182,52.5362091 L16.5062241,52.5362091 L4.57735625,26.9692193 L4.36929461,26.9692193 L4.36929461,70 L7.10542736e-15,70 Z M43.7622999,70 L58.6040308,19.983703 L64.4991108,19.983703 L79.1327801,70 L74.2086544,70 L69.6312982,54.0730227 L52.9863663,54.0730227 L48.4090101,70 L43.7622999,70 Z M54.0266746,50.1611336 L68.5909899,50.1611336 L61.44754,25.0831299 L61.3088322,25.0831299 L54.0266746,50.1611336 Z M86.27623,70 L86.27623,20.1932685 L102.158269,20.1932685 C110.758151,20.1932685 117,24.5242886 117,33.8150253 L117,55.6098363 C117,65.0402834 110.827504,70 102.088915,70 L86.27623,70 Z M91.1310018,65.8785454 L101.46473,65.8785454 C109.024303,65.8785454 112.00652,60.4996978 112.00652,55.6796915 L112.00652,34.4437218 C112.00652,28.7854536 108.816242,24.2448679 101.603438,24.2448679 L91.1310018,24.2448679 L91.1310018,65.8785454 Z" id="Shape" fill="#FFFFFF"></path>
        </g>
    </g>
</svg>